<?xml version="1.0" encoding="utf-8"?>
<!-- Generator: Adobe Illustrator 20.1.0, SVG Export Plug-In . SVG Version: 6.00 Build 0)  -->
<!DOCTYPE svg PUBLIC "-//W3C//DTD SVG 1.1//EN" "http://www.w3.org/Graphics/SVG/1.1/DTD/svg11.dtd">
<svg version="1.1" id="Layer_1" xmlns="http://www.w3.org/2000/svg" xmlns:xlink="http://www.w3.org/1999/xlink" x="0px" y="0px"
	 viewBox="0 0 200 200" style="enable-background:new 0 0 200 200;" xml:space="preserve">
<style type="text/css">
	.st0{fill:#FFFFFF;}
</style>
<g>
	<g>
		<path class="st0" d="M134.9,51.1V39.4h-9.1v9c1.3,0.7,2.5,1.2,3.5,1.5C131,50.4,132.9,50.8,134.9,51.1z"/>
		<path class="st0" d="M125.8,117.4h-20.7c-0.4,0.9-0.1,0.4,0,0h-85V81.6h105.7v32.2c0.3-0.2,6.5-1.2,9-3.7V48.6
			c-2.8-1-5.8,0.5-9-1.4v24.9H20.1V39.7h-9v146.6h9h105.7h9V101c-3.2,2.1-6.4,3.7-9,4.7V117.4z"/>
		<path class="st0" d="M59,46.6v-5.9h0.4v-1.8h-4.1v1.8h0.4v5.9c-1.4,0.6-2.4,1.9-2.4,3.4v20.6h8.2V49.9
			C61.4,48.4,60.4,47.1,59,46.6z M60.5,59.9h-6.4v-8.6h6.4V59.9z"/>
		<path class="st0" d="M74.6,46.6v-5.9H75v-1.8h-4.1v1.8h0.4v5.9c-1.4,0.6-2.4,1.9-2.4,3.4v20.6H77V49.9C77,48.4,76,47.1,74.6,46.6z
			 M76.1,59.9h-6.4v-8.6h6.4V59.9z"/>
		<path class="st0" d="M93.3,29.6l2.5-5.4l0.3,0.2l0.8-1.6l-3.7-1.8l-0.8,1.6l0.3,0.2l-2.5,5.4c-1.5-0.1-3,0.6-3.6,2l-8.8,18.6
			l7.4,3.5l8.8-18.6C94.7,32.4,94.3,30.8,93.3,29.6z M89,42.3l-5.8-2.8l3.7-7.8l5.8,2.8L89,42.3z"/>
		<path class="st0" d="M43.7,46.6v-5.9h0.4v-1.8H40v1.8h0.4v5.9C39,47.1,38,48.4,38,49.9v20.6h8.2V49.9
			C46.1,48.4,45.1,47.1,43.7,46.6z M45.3,59.9h-6.4v-8.6h6.4V59.9z"/>
		<path class="st0" d="M28.5,46.6v-5.9h0.4v-1.8h-4.1v1.8h0.4v5.9c-1.4,0.6-2.4,1.9-2.4,3.4v20.6h8.2V49.9
			C30.9,48.4,29.9,47.1,28.5,46.6z M30,59.9h-6.4v-8.6H30V59.9z"/>
		<path class="st0" d="M59,91.8v-5.9h0.4v-1.8h-4.1v1.8h0.4v5.9c-1.4,0.6-2.4,1.9-2.4,3.4v20.6h8.2V95.2
			C61.4,93.7,60.4,92.4,59,91.8z M60.5,105.1h-6.4v-8.6h6.4V105.1z"/>
		<path class="st0" d="M74.6,91.8v-5.9H75v-1.8h-4.1v1.8h0.4v5.9c-1.4,0.6-2.4,1.9-2.4,3.4v20.6H77V95.2C77,93.7,76,92.4,74.6,91.8z
			 M76.1,105.1h-6.4v-8.6h6.4V105.1z"/>
		<path class="st0" d="M89.9,91.8v-5.9h0.4v-1.8h-4.1v1.8h0.4v5.9c-1.4,0.6-2.4,1.9-2.4,3.4v20.6h8.2V95.2
			C92.3,93.7,91.3,92.4,89.9,91.8z M91.4,105.1H85v-8.6h6.4V105.1z"/>
		<path class="st0" d="M105.5,91.8v-5.9h0.4v-1.8h-4.1v1.8h0.4v5.9c-1.4,0.6-2.4,1.9-2.4,3.4v20.6h8.2V95.2
			C107.9,93.7,106.9,92.4,105.5,91.8z M107.1,105.1h-6.4v-8.6h6.4V105.1z"/>
		<path class="st0" d="M43.7,91.8v-5.9h0.4v-1.8H40v1.8h0.4v5.9C39,92.4,38,93.7,38,95.2v20.6h8.2V95.2
			C46.1,93.7,45.1,92.4,43.7,91.8z M45.3,105.1h-6.4v-8.6h6.4V105.1z"/>
		<path class="st0" d="M28.5,91.8v-5.9h0.4v-1.8h-4.1v1.8h0.4v5.9c-1.4,0.6-2.4,1.9-2.4,3.4v20.6h8.2V95.2
			C30.9,93.7,29.9,92.4,28.5,91.8z M30,105.1h-6.4v-8.6H30V105.1z"/>
	</g>
	<g>
		<path class="st0" d="M150.2,173c-0.3,2-0.4,3.1-0.4,3.1c-0.7,4.9,2.7,9.5,7.6,10.2c0.4,0.1,0.9,0.1,1.3,0.1c1.3,0,2.5-0.3,3.6-0.8
			c-0.1-0.1-0.3-0.2-0.4-0.3C157.5,181.5,153.6,177.4,150.2,173z"/>
		<circle class="st0" cx="155.1" cy="32" r="16.2"/>
		<path class="st0" d="M186.1,67.3c-2.9-7.4-7.1-11.6-10.9-13.5c-2.4-1.2-4.6-1.5-5.9-1.5c-0.1,0-0.2,0-0.3,0h-27.4
			c-0.2,0-0.4-0.1-0.7-0.1c-0.8-0.1-2-0.3-3.5-0.6c-3-0.5-7.3-1.4-12.2-2.8c-9.7-2.7-21.8-7.5-30.9-14.9c-1.5-1.2-3.5-1.6-5.2-1
			l3.7,1.8L89,42.3l-3.6-1.7c0.4,0.8,0.9,1.6,1.7,2.2c11,8.9,24.4,14,35,17c5.5,1.6,10.3,2.5,13.6,3.1v44c0,0.2,0,0.3,0,0.5
			c-0.6,3.7-1.1,8.7-1.1,14.4c0,0,0,0,0,0c0,8.6,1.2,19.1,5.4,30.1c4.2,11,11.4,22.3,22.9,32.4c1.7,1.5,3.8,2.2,5.9,2.2
			c2.5,0,5-1,6.8-3.1c3.3-3.7,2.9-9.4-0.9-12.7c-9.3-8.1-14.7-16.8-17.9-25.2c-3.2-8.5-4.2-16.8-4.2-23.7c0-3.5,0.3-6.7,0.6-9.3h3.3
			c-0.2,6.1-0.8,13.5-1.5,21c0.7,4,1.7,7.8,3.1,11.5c2.7,7,6.5,13.2,11.5,18.8c0.4-3.5,0.9-7.5,1.4-11.7c1.7-14.7,3.4-32,3.5-44.5
			c0-0.2,0-0.4,0-0.7V69.6c2.5,5.1,5,14.9,5,32.3c0,4-0.1,8.3-0.4,13.1c-0.2,3.2,2.2,5.9,5.4,6.1c0.1,0,0.2,0,0.3,0
			c3,0,5.6-2.4,5.7-5.4c0.3-5,0.4-9.6,0.4-13.8C191,85.5,189,74.8,186.1,67.3z"/>
	</g>
</g>
</svg>
