<?xml version="1.0" encoding="utf-8"?>
<!-- Generator: Adobe Illustrator 20.1.0, SVG Export Plug-In . SVG Version: 6.00 Build 0)  -->
<!DOCTYPE svg PUBLIC "-//W3C//DTD SVG 1.1//EN" "http://www.w3.org/Graphics/SVG/1.1/DTD/svg11.dtd">
<svg version="1.1" id="Layer_1" xmlns="http://www.w3.org/2000/svg" xmlns:xlink="http://www.w3.org/1999/xlink" x="0px" y="0px"
	 viewBox="0 0 200 200" style="enable-background:new 0 0 200 200;" xml:space="preserve">
<style type="text/css">
	.st0{fill:#FFFFFF;}
	.st1{fill:#5D5D5D;}
	.st2{font-family:'MyriadPro-Regular';}
	.st3{font-size:7.6807px;}
	.st4{fill:#666766;}
</style>
<path class="st0" d="M123.1,32v33.2H17.4V32h-9v147.4h123.7V32H123.1z M123.1,110.5H17.4V74.6h105.8v35.9H123.1z"/>
<g>
	<path class="st0" d="M27.2,38.2L27,32.8c0-0.5-0.4-0.8-0.9-0.8h-2.6c-0.5,0-0.9,0.4-0.9,0.8l-0.2,5.5c-0.9,0.4-1.5,1.2-1.5,2.2V63
		c0,0.4,0.4,0.8,0.8,0.8h6.1c0.4,0,0.8-0.4,0.8-0.8V40.4C28.7,39.4,28.1,38.6,27.2,38.2z M25.7,35.9C25.8,35.9,25.8,35.9,25.7,35.9
		H26c0,0,0.1,0,0.1,0.1v2.1h-2.6V36c0,0,0-0.1,0.1-0.1h0.3H24H25.7z M24.5,34.8c0-0.2,0.2-0.3,0.3-0.3c0.2,0,0.3,0.2,0.3,0.3
		s-0.2,0.3-0.3,0.3S24.5,35,24.5,34.8z M23,32.8c0-0.3,0.3-0.6,0.6-0.6h2.6c0.3,0,0.6,0.2,0.6,0.6l0.2,5.4c-0.2,0-0.3-0.1-0.5-0.1
		V36c0-0.2-0.1-0.3-0.3-0.4v-0.1V34c0-0.2-0.2-0.4-0.4-0.4H24c-0.2,0-0.4,0.2-0.4,0.4v1.5v0.1c-0.2,0-0.3,0.2-0.3,0.4v2.1
		c-0.2,0-0.3,0-0.5,0.1L23,32.8z"/>
	<path class="st1" d="M21,41.3c0,0,4.9,0.7,7.6,0v15.5c0,0-2.3,0.9-7.6,0V41.3z"/>
	<g>
		<text transform="matrix(1 0 0 1 21.7197 49.7051)" class="st0 st2 st3">D</text>
		<text transform="matrix(1 0 0 1 23.7383 52.5469)" class="st0 st2 st3">B</text>
	</g>
</g>
<g>
	<path class="st0" d="M38.7,38.2l-0.2-5.5c0-0.5-0.4-0.8-0.9-0.8H35c-0.5,0-0.9,0.4-0.9,0.8L34,38.2c-0.9,0.4-1.5,1.2-1.5,2.2v22.5
		c0,0.4,0.4,0.8,0.8,0.8h6.1c0.4,0,0.8-0.4,0.8-0.8V40.4C40.2,39.4,39.6,38.6,38.7,38.2z M37.2,35.9C37.3,35.9,37.3,35.9,37.2,35.9
		h0.3c0,0,0.1,0,0.1,0.1v2.1H35V36c0,0,0-0.1,0.1-0.1h0.3h0.1H37.2z M36,34.8c0-0.2,0.2-0.3,0.3-0.3c0.2,0,0.3,0.2,0.3,0.3
		s-0.2,0.3-0.3,0.3S36,35,36,34.8z M34.5,32.8c0-0.3,0.3-0.6,0.6-0.6h2.6c0.3,0,0.6,0.2,0.6,0.6l0.2,5.4c-0.2,0-0.3-0.1-0.5-0.1V36
		c0-0.2-0.1-0.3-0.3-0.4v-0.1V34c0-0.2-0.2-0.4-0.4-0.4h-1.8c-0.2,0-0.4,0.2-0.4,0.4v1.5v0.1c-0.2,0-0.3,0.2-0.3,0.4v2.1
		c-0.2,0-0.3,0-0.5,0.1L34.5,32.8z"/>
	<path class="st1" d="M32.5,41.3c0,0,4.9,0.7,7.6,0v15.5c0,0-2.3,0.9-7.6,0V41.3z"/>
	<g>
		<text transform="matrix(1 0 0 1 33.2197 49.7051)" class="st0 st2 st3">D</text>
		<text transform="matrix(1 0 0 1 35.2383 52.5469)" class="st0 st2 st3">B</text>
	</g>
</g>
<g>
	<path class="st0" d="M50.2,38.2L50,32.8c0-0.5-0.4-0.8-0.9-0.8h-2.6c-0.5,0-0.9,0.4-0.9,0.8l-0.2,5.5c-0.9,0.4-1.5,1.2-1.5,2.2V63
		c0,0.4,0.4,0.8,0.8,0.8h6.1c0.4,0,0.8-0.4,0.8-0.8V40.4C51.7,39.4,51.1,38.6,50.2,38.2z M48.7,35.9C48.8,35.9,48.8,35.9,48.7,35.9
		H49c0,0,0.1,0,0.1,0.1v2.1h-2.6V36c0,0,0-0.1,0.1-0.1h0.3H47H48.7z M47.5,34.8c0-0.2,0.2-0.3,0.3-0.3c0.2,0,0.3,0.2,0.3,0.3
		s-0.2,0.3-0.3,0.3S47.5,35,47.5,34.8z M46,32.8c0-0.3,0.3-0.6,0.6-0.6h2.6c0.3,0,0.6,0.2,0.6,0.6l0.2,5.4c-0.2,0-0.3-0.1-0.5-0.1
		V36c0-0.2-0.1-0.3-0.3-0.4v-0.1V34c0-0.2-0.2-0.4-0.4-0.4H47c-0.2,0-0.4,0.2-0.4,0.4v1.5v0.1c-0.2,0-0.3,0.2-0.3,0.4v2.1
		c-0.2,0-0.3,0-0.5,0.1L46,32.8z"/>
	<path class="st1" d="M44,41.3c0,0,4.9,0.7,7.6,0v15.5c0,0-2.3,0.9-7.6,0V41.3z"/>
	<g>
		<text transform="matrix(1 0 0 1 44.7197 49.7051)" class="st0 st2 st3">D</text>
		<text transform="matrix(1 0 0 1 46.7383 52.5469)" class="st0 st2 st3">B</text>
	</g>
</g>
<g>
	<g>
		<g>
			<path class="st0" d="M29.5,84.8c0-1.6-1.3-3-3.1-3.7v-0.3h-0.1h-4.2c-0.1,0-0.1,0-0.1,0v0.3c-1.8,0.6-3.1,2-3.1,3.6v0.1
				c0,0,0,0,0,0.1V107c0,0.1,0,0.1,0,0.2v0.1c0,0.8,2.4,1.4,5.4,1.4s5.4-0.6,5.4-1.4v-0.1c0-0.1,0-0.1,0-0.2L29.5,84.8L29.5,84.8z"
				/>
			<path class="st0" d="M26.1,80.3c0,0.2-0.1,0.3-0.3,0.3h-3.2c-0.2,0-0.3-0.1-0.3-0.3v-2.1c0-0.2,0.1-0.3,0.3-0.3h3.2
				c0.2,0,0.3,0.1,0.3,0.3V80.3z"/>
			<path class="st0" d="M26.1,77.3c0,0.2-0.1,0.3-0.3,0.3h-3.2c-0.2,0-0.3-0.1-0.3-0.3v-0.5c0-0.2,0.1-0.3,0.3-0.3h3.2
				c0.2,0,0.3,0.1,0.3,0.3V77.3z"/>
		</g>
		<path class="st4" d="M18.8,86.1c0,0,6.2,0.5,10.7,0v15.6c0,0-5.2,1.3-10.7,0V86.1z"/>
	</g>
</g>
<g>
	<g>
		<g>
			<path class="st0" d="M45,84.8c0-1.6-1.3-3-3.1-3.7v-0.3h-0.1h-4.2c-0.1,0-0.1,0-0.1,0v0.3c-1.8,0.6-3.1,2-3.1,3.6v0.1
				c0,0,0,0,0,0.1V107c0,0.1,0,0.1,0,0.2v0.1c0,0.8,2.4,1.4,5.4,1.4s5.4-0.6,5.4-1.4v-0.1c0-0.1,0-0.1,0-0.2L45,84.8L45,84.8z"/>
			<path class="st0" d="M41.6,80.3c0,0.2-0.1,0.3-0.3,0.3h-3.2c-0.2,0-0.3-0.1-0.3-0.3v-2.1c0-0.2,0.1-0.3,0.3-0.3h3.2
				c0.2,0,0.3,0.1,0.3,0.3V80.3z"/>
			<path class="st0" d="M41.6,77.3c0,0.2-0.1,0.3-0.3,0.3h-3.2c-0.2,0-0.3-0.1-0.3-0.3v-0.5c0-0.2,0.1-0.3,0.3-0.3h3.2
				c0.2,0,0.3,0.1,0.3,0.3V77.3z"/>
		</g>
		<path class="st4" d="M34.3,86.1c0,0,6.2,0.5,10.7,0v15.6c0,0-5.2,1.3-10.7,0V86.1z"/>
	</g>
</g>
<g>
	<g>
		<g>
			<path class="st0" d="M60.5,84.8c0-1.6-1.3-3-3.1-3.7v-0.3h-0.1h-4.2c-0.1,0-0.1,0-0.1,0v0.3c-1.8,0.6-3.1,2-3.1,3.6v0.1
				c0,0,0,0,0,0.1V107c0,0.1,0,0.1,0,0.2v0.1c0,0.8,2.4,1.4,5.4,1.4s5.4-0.6,5.4-1.4v-0.1c0-0.1,0-0.1,0-0.2L60.5,84.8L60.5,84.8z"
				/>
			<path class="st0" d="M57.1,80.3c0,0.2-0.1,0.3-0.3,0.3h-3.2c-0.2,0-0.3-0.1-0.3-0.3v-2.1c0-0.2,0.1-0.3,0.3-0.3h3.2
				c0.2,0,0.3,0.1,0.3,0.3V80.3z"/>
			<path class="st0" d="M57.1,77.3c0,0.2-0.1,0.3-0.3,0.3h-3.2c-0.2,0-0.3-0.1-0.3-0.3v-0.5c0-0.2,0.1-0.3,0.3-0.3h3.2
				c0.2,0,0.3,0.1,0.3,0.3V77.3z"/>
		</g>
		<path class="st4" d="M49.8,86.1c0,0,6.2,0.5,10.7,0v15.6c0,0-5.2,1.3-10.7,0V86.1z"/>
	</g>
</g>
<g>
	<g>
		<g>
			<path class="st0" d="M76,84.8c0-1.6-1.3-3-3.1-3.7v-0.3h-0.1h-4.2c-0.1,0-0.1,0-0.1,0v0.3c-1.8,0.6-3.1,2-3.1,3.6v0.1
				c0,0,0,0,0,0.1V107c0,0.1,0,0.1,0,0.2v0.1c0,0.8,2.4,1.4,5.4,1.4s5.4-0.6,5.4-1.4v-0.1c0-0.1,0-0.1,0-0.2L76,84.8L76,84.8z"/>
			<path class="st0" d="M72.6,80.3c0,0.2-0.1,0.3-0.3,0.3h-3.2c-0.2,0-0.3-0.1-0.3-0.3v-2.1c0-0.2,0.1-0.3,0.3-0.3h3.2
				c0.2,0,0.3,0.1,0.3,0.3V80.3z"/>
			<path class="st0" d="M72.6,77.3c0,0.2-0.1,0.3-0.3,0.3h-3.2c-0.2,0-0.3-0.1-0.3-0.3v-0.5c0-0.2,0.1-0.3,0.3-0.3h3.2
				c0.2,0,0.3,0.1,0.3,0.3V77.3z"/>
		</g>
		<path class="st4" d="M65.3,86.1c0,0,6.2,0.5,10.7,0v15.6c0,0-5.2,1.3-10.7,0V86.1z"/>
	</g>
</g>
<g>
	<g>
		<g>
			<path class="st0" d="M91.1,84.8c0-1.6-1.3-3-3.1-3.7v-0.3h-0.1h-4.2c-0.1,0-0.1,0-0.1,0v0.3c-1.8,0.6-3.1,2-3.1,3.6v0.1
				c0,0,0,0,0,0.1V107c0,0.1,0,0.1,0,0.2v0.1c0,0.8,2.4,1.4,5.4,1.4s5.4-0.6,5.4-1.4v-0.1c0-0.1,0-0.1,0-0.2L91.1,84.8L91.1,84.8z"
				/>
			<path class="st0" d="M87.7,80.3c0,0.2-0.1,0.3-0.3,0.3h-3.2c-0.2,0-0.3-0.1-0.3-0.3v-2.1c0-0.2,0.1-0.3,0.3-0.3h3.2
				c0.2,0,0.3,0.1,0.3,0.3V80.3z"/>
			<path class="st0" d="M87.7,77.3c0,0.2-0.1,0.3-0.3,0.3h-3.2c-0.2,0-0.3-0.1-0.3-0.3v-0.5c0-0.2,0.1-0.3,0.3-0.3h3.2
				c0.2,0,0.3,0.1,0.3,0.3V77.3z"/>
		</g>
		<path class="st4" d="M80.4,86.1c0,0,6.2,0.5,10.7,0v15.6c0,0-5.2,1.3-10.7,0V86.1z"/>
	</g>
</g>
<g>
	<g>
		<g>
			<path class="st0" d="M106.6,84.8c0-1.6-1.3-3-3.1-3.7v-0.3h-0.1h-4.2c-0.1,0-0.1,0-0.1,0v0.3c-1.8,0.6-3.1,2-3.1,3.6v0.1
				c0,0,0,0,0,0.1V107c0,0.1,0,0.1,0,0.2v0.1c0,0.8,2.4,1.4,5.4,1.4s5.4-0.6,5.4-1.4v-0.1c0-0.1,0-0.1,0-0.2L106.6,84.8L106.6,84.8z
				"/>
			<path class="st0" d="M103.2,80.3c0,0.2-0.1,0.3-0.3,0.3h-3.2c-0.2,0-0.3-0.1-0.3-0.3v-2.1c0-0.2,0.1-0.3,0.3-0.3h3.2
				c0.2,0,0.3,0.1,0.3,0.3V80.3z"/>
			<path class="st0" d="M103.2,77.3c0,0.2-0.1,0.3-0.3,0.3h-3.2c-0.2,0-0.3-0.1-0.3-0.3v-0.5c0-0.2,0.1-0.3,0.3-0.3h3.2
				c0.2,0,0.3,0.1,0.3,0.3V77.3z"/>
		</g>
		<path class="st4" d="M95.9,86.1c0,0,6.2,0.5,10.7,0v15.6c0,0-5.2,1.3-10.7,0V86.1z"/>
	</g>
</g>
<g>
	<g>
		<g>
			<path class="st0" d="M121.7,84.8c0-1.6-1.3-3-3.1-3.7v-0.3h-0.1h-4.2c-0.1,0-0.1,0-0.1,0v0.3c-1.8,0.6-3.1,2-3.1,3.6v0.1
				c0,0,0,0,0,0.1V107c0,0.1,0,0.1,0,0.2v0.1c0,0.8,2.4,1.4,5.4,1.4s5.4-0.6,5.4-1.4v-0.1c0-0.1,0-0.1,0-0.2L121.7,84.8L121.7,84.8z
				"/>
			<path class="st0" d="M118.3,80.3c0,0.2-0.1,0.3-0.3,0.3h-3.2c-0.2,0-0.3-0.1-0.3-0.3v-2.1c0-0.2,0.1-0.3,0.3-0.3h3.2
				c0.2,0,0.3,0.1,0.3,0.3V80.3z"/>
			<path class="st0" d="M118.3,77.3c0,0.2-0.1,0.3-0.3,0.3h-3.2c-0.2,0-0.3-0.1-0.3-0.3v-0.5c0-0.2,0.1-0.3,0.3-0.3h3.2
				c0.2,0,0.3,0.1,0.3,0.3V77.3z"/>
		</g>
		<path class="st4" d="M111,86.1c0,0,6.2,0.5,10.7,0v15.6c0,0-5.2,1.3-10.7,0V86.1z"/>
	</g>
</g>
<g>
	<path class="st0" d="M27.2,38.2L27,32.8c0-0.5-0.4-0.8-0.9-0.8h-2.6c-0.5,0-0.9,0.4-0.9,0.8l-0.2,5.5c-0.9,0.4-1.5,1.2-1.5,2.2V63
		c0,0.4,0.4,0.8,0.8,0.8h6.1c0.4,0,0.8-0.4,0.8-0.8V40.4C28.7,39.4,28.1,38.6,27.2,38.2z M25.7,35.9C25.8,35.9,25.8,35.9,25.7,35.9
		H26c0,0,0.1,0,0.1,0.1v2.1h-2.6V36c0,0,0-0.1,0.1-0.1h0.3H24H25.7z M24.5,34.8c0-0.2,0.2-0.3,0.3-0.3c0.2,0,0.3,0.2,0.3,0.3
		s-0.2,0.3-0.3,0.3S24.5,35,24.5,34.8z M23,32.8c0-0.3,0.3-0.6,0.6-0.6h2.6c0.3,0,0.6,0.2,0.6,0.6l0.2,5.4c-0.2,0-0.3-0.1-0.5-0.1
		V36c0-0.2-0.1-0.3-0.3-0.4v-0.1V34c0-0.2-0.2-0.4-0.4-0.4H24c-0.2,0-0.4,0.2-0.4,0.4v1.5v0.1c-0.2,0-0.3,0.2-0.3,0.4v2.1
		c-0.2,0-0.3,0-0.5,0.1L23,32.8z"/>
	<path class="st1" d="M21,41.3c0,0,4.9,0.7,7.6,0v15.5c0,0-2.3,0.9-7.6,0V41.3z"/>
</g>
<g>
	<path class="st0" d="M38.7,38.2l-0.2-5.5c0-0.5-0.4-0.8-0.9-0.8H35c-0.5,0-0.9,0.4-0.9,0.8L34,38.2c-0.9,0.4-1.5,1.2-1.5,2.2v22.5
		c0,0.4,0.4,0.8,0.8,0.8h6.1c0.4,0,0.8-0.4,0.8-0.8V40.4C40.2,39.4,39.6,38.6,38.7,38.2z M37.2,35.9C37.3,35.9,37.3,35.9,37.2,35.9
		h0.3c0,0,0.1,0,0.1,0.1v2.1H35V36c0,0,0-0.1,0.1-0.1h0.3h0.1H37.2z M36,34.8c0-0.2,0.2-0.3,0.3-0.3c0.2,0,0.3,0.2,0.3,0.3
		s-0.2,0.3-0.3,0.3S36,35,36,34.8z M34.5,32.8c0-0.3,0.3-0.6,0.6-0.6h2.6c0.3,0,0.6,0.2,0.6,0.6l0.2,5.4c-0.2,0-0.3-0.1-0.5-0.1V36
		c0-0.2-0.1-0.3-0.3-0.4v-0.1V34c0-0.2-0.2-0.4-0.4-0.4h-1.8c-0.2,0-0.4,0.2-0.4,0.4v1.5v0.1c-0.2,0-0.3,0.2-0.3,0.4v2.1
		c-0.2,0-0.3,0-0.5,0.1L34.5,32.8z"/>
	<path class="st1" d="M32.5,41.3c0,0,4.9,0.7,7.6,0v15.5c0,0-2.3,0.9-7.6,0V41.3z"/>
</g>
<g>
	<path class="st0" d="M50.2,38.2L50,32.8c0-0.5-0.4-0.8-0.9-0.8h-2.6c-0.5,0-0.9,0.4-0.9,0.8l-0.2,5.5c-0.9,0.4-1.5,1.2-1.5,2.2V63
		c0,0.4,0.4,0.8,0.8,0.8h6.1c0.4,0,0.8-0.4,0.8-0.8V40.4C51.7,39.4,51.1,38.6,50.2,38.2z M48.7,35.9C48.8,35.9,48.8,35.9,48.7,35.9
		H49c0,0,0.1,0,0.1,0.1v2.1h-2.6V36c0,0,0-0.1,0.1-0.1h0.3H47H48.7z M47.5,34.8c0-0.2,0.2-0.3,0.3-0.3c0.2,0,0.3,0.2,0.3,0.3
		s-0.2,0.3-0.3,0.3S47.5,35,47.5,34.8z M46,32.8c0-0.3,0.3-0.6,0.6-0.6h2.6c0.3,0,0.6,0.2,0.6,0.6l0.2,5.4c-0.2,0-0.3-0.1-0.5-0.1
		V36c0-0.2-0.1-0.3-0.3-0.4v-0.1V34c0-0.2-0.2-0.4-0.4-0.4H47c-0.2,0-0.4,0.2-0.4,0.4v1.5v0.1c-0.2,0-0.3,0.2-0.3,0.4v2.1
		c-0.2,0-0.3,0-0.5,0.1L46,32.8z"/>
	<path class="st1" d="M44,41.3c0,0,4.9,0.7,7.6,0v15.5c0,0-2.3,0.9-7.6,0V41.3z"/>
</g>
<g>
	<path class="st0" d="M61.7,38.2l-0.2-5.5c0-0.5-0.4-0.8-0.9-0.8H58c-0.5,0-0.9,0.4-0.9,0.8L57,38.2c-0.9,0.4-1.5,1.2-1.5,2.2v22.5
		c0,0.4,0.4,0.8,0.8,0.8h6.1c0.4,0,0.8-0.4,0.8-0.8V40.4C63.2,39.4,62.6,38.6,61.7,38.2z M60.2,35.9C60.3,35.9,60.3,35.9,60.2,35.9
		h0.3c0,0,0.1,0,0.1,0.1v2.1H58V36c0,0,0-0.1,0.1-0.1h0.3h0.1H60.2z M59,34.8c0-0.2,0.2-0.3,0.3-0.3c0.2,0,0.3,0.2,0.3,0.3
		s-0.2,0.3-0.3,0.3S59,35,59,34.8z M57.5,32.8c0-0.3,0.3-0.6,0.6-0.6h2.6c0.3,0,0.6,0.2,0.6,0.6l0.2,5.4c-0.2,0-0.3-0.1-0.5-0.1V36
		c0-0.2-0.1-0.3-0.3-0.4v-0.1V34c0-0.2-0.2-0.4-0.4-0.4h-1.8c-0.2,0-0.4,0.2-0.4,0.4v1.5v0.1c-0.2,0-0.3,0.2-0.3,0.4v2.1
		c-0.2,0-0.3,0-0.5,0.1L57.5,32.8z"/>
	<path class="st1" d="M55.5,41.3c0,0,4.9,0.7,7.6,0v15.5c0,0-2.3,0.9-7.6,0V41.3z"/>
	<g>
		<text transform="matrix(1 0 0 1 56.2197 49.7051)" class="st0 st2 st3">D</text>
		<text transform="matrix(1 0 0 1 58.2383 52.5469)" class="st0 st2 st3">B</text>
	</g>
</g>
<g>
	<path class="st0" d="M73.2,38.2L73,32.8c0-0.5-0.4-0.8-0.9-0.8h-2.6c-0.5,0-0.9,0.4-0.9,0.8l-0.2,5.5c-0.9,0.4-1.5,1.2-1.5,2.2V63
		c0,0.4,0.4,0.8,0.8,0.8h6.1c0.4,0,0.8-0.4,0.8-0.8V40.4C74.7,39.4,74.1,38.6,73.2,38.2z M71.7,35.9C71.8,35.9,71.8,35.9,71.7,35.9
		H72c0,0,0.1,0,0.1,0.1v2.1h-2.6V36c0,0,0-0.1,0.1-0.1h0.3H70H71.7z M70.5,34.8c0-0.2,0.2-0.3,0.3-0.3c0.2,0,0.3,0.2,0.3,0.3
		s-0.2,0.3-0.3,0.3S70.5,35,70.5,34.8z M69,32.8c0-0.3,0.3-0.6,0.6-0.6h2.6c0.3,0,0.6,0.2,0.6,0.6l0.2,5.4c-0.2,0-0.3-0.1-0.5-0.1
		V36c0-0.2-0.1-0.3-0.3-0.4v-0.1V34c0-0.2-0.2-0.4-0.4-0.4H70c-0.2,0-0.4,0.2-0.4,0.4v1.5v0.1c-0.2,0-0.3,0.2-0.3,0.4v2.1
		c-0.2,0-0.3,0-0.5,0.1L69,32.8z"/>
	<path class="st1" d="M67,41.3c0,0,4.9,0.7,7.6,0v15.5c0,0-2.3,0.9-7.6,0V41.3z"/>
	<g>
		<text transform="matrix(1 0 0 1 67.7197 49.7051)" class="st0 st2 st3">D</text>
		<text transform="matrix(1 0 0 1 69.7383 52.5469)" class="st0 st2 st3">B</text>
	</g>
</g>
<g>
	<path class="st0" d="M61.7,38.2l-0.2-5.5c0-0.5-0.4-0.8-0.9-0.8H58c-0.5,0-0.9,0.4-0.9,0.8L57,38.2c-0.9,0.4-1.5,1.2-1.5,2.2v22.5
		c0,0.4,0.4,0.8,0.8,0.8h6.1c0.4,0,0.8-0.4,0.8-0.8V40.4C63.2,39.4,62.6,38.6,61.7,38.2z M60.2,35.9C60.3,35.9,60.3,35.9,60.2,35.9
		h0.3c0,0,0.1,0,0.1,0.1v2.1H58V36c0,0,0-0.1,0.1-0.1h0.3h0.1H60.2z M59,34.8c0-0.2,0.2-0.3,0.3-0.3c0.2,0,0.3,0.2,0.3,0.3
		s-0.2,0.3-0.3,0.3S59,35,59,34.8z M57.5,32.8c0-0.3,0.3-0.6,0.6-0.6h2.6c0.3,0,0.6,0.2,0.6,0.6l0.2,5.4c-0.2,0-0.3-0.1-0.5-0.1V36
		c0-0.2-0.1-0.3-0.3-0.4v-0.1V34c0-0.2-0.2-0.4-0.4-0.4h-1.8c-0.2,0-0.4,0.2-0.4,0.4v1.5v0.1c-0.2,0-0.3,0.2-0.3,0.4v2.1
		c-0.2,0-0.3,0-0.5,0.1L57.5,32.8z"/>
	<path class="st1" d="M55.5,41.3c0,0,4.9,0.7,7.6,0v15.5c0,0-2.3,0.9-7.6,0V41.3z"/>
</g>
<g>
	<path class="st0" d="M73.2,38.2L73,32.8c0-0.5-0.4-0.8-0.9-0.8h-2.6c-0.5,0-0.9,0.4-0.9,0.8l-0.2,5.5c-0.9,0.4-1.5,1.2-1.5,2.2V63
		c0,0.4,0.4,0.8,0.8,0.8h6.1c0.4,0,0.8-0.4,0.8-0.8V40.4C74.7,39.4,74.1,38.6,73.2,38.2z M71.7,35.9C71.8,35.9,71.8,35.9,71.7,35.9
		H72c0,0,0.1,0,0.1,0.1v2.1h-2.6V36c0,0,0-0.1,0.1-0.1h0.3H70H71.7z M70.5,34.8c0-0.2,0.2-0.3,0.3-0.3c0.2,0,0.3,0.2,0.3,0.3
		s-0.2,0.3-0.3,0.3S70.5,35,70.5,34.8z M69,32.8c0-0.3,0.3-0.6,0.6-0.6h2.6c0.3,0,0.6,0.2,0.6,0.6l0.2,5.4c-0.2,0-0.3-0.1-0.5-0.1
		V36c0-0.2-0.1-0.3-0.3-0.4v-0.1V34c0-0.2-0.2-0.4-0.4-0.4H70c-0.2,0-0.4,0.2-0.4,0.4v1.5v0.1c-0.2,0-0.3,0.2-0.3,0.4v2.1
		c-0.2,0-0.3,0-0.5,0.1L69,32.8z"/>
	<path class="st1" d="M67,41.3c0,0,4.9,0.7,7.6,0v15.5c0,0-2.3,0.9-7.6,0V41.3z"/>
</g>
<g>
	<g>
		<path class="st0" d="M151.6,169.8c-0.3,2-0.4,3.1-0.4,3.1c-0.7,4.9,2.7,9.5,7.6,10.2c0.4,0.1,0.9,0.1,1.3,0.1
			c1.3,0,2.5-0.3,3.6-0.8c-0.1-0.1-0.3-0.2-0.4-0.3C158.9,178.3,155,174.2,151.6,169.8z"/>
		<circle class="st0" cx="156.5" cy="28.8" r="16.2"/>
		<path class="st0" d="M187.5,64.1c-2.9-7.4-7.1-11.6-10.9-13.5c-2.4-1.2-4.6-1.5-5.9-1.5c-0.1,0-0.2,0-0.3,0H143
			c-0.2,0-0.4-0.1-0.7-0.1c-0.8-0.1-2-0.3-3.5-0.6c-3-0.5-7.3-1.4-12.2-2.8c-9.7-2.7-21.8-7.5-30.9-14.9c-1.5-1.2-3.5-1.6-5.2-1
			l3.7,1.8l-3.8,7.6l-3.6-1.7c0.4,0.8,0.9,1.6,1.7,2.2c11,8.9,24.4,14,35,17c5.5,1.6,10.3,2.5,13.6,3.1v44c0,0.2,0,0.3,0,0.5
			c-0.6,3.7-1.1,8.7-1.1,14.4l0,0c0,8.6,1.2,19.1,5.4,30.1s11.4,22.3,22.9,32.4c1.7,1.5,3.8,2.2,5.9,2.2c2.5,0,5-1,6.8-3.1
			c3.3-3.7,2.9-9.4-0.9-12.7c-9.3-8.1-14.7-16.8-17.9-25.2c-3.2-8.5-4.2-16.8-4.2-23.7c0-3.5,0.3-6.7,0.6-9.3h3.3
			c-0.2,6.1-0.8,13.5-1.5,21c0.7,4,1.7,7.8,3.1,11.5c2.7,7,6.5,13.2,11.5,18.8c0.4-3.5,0.9-7.5,1.4-11.7c1.7-14.7,3.4-32,3.5-44.5
			c0-0.2,0-0.4,0-0.7V66.4c2.5,5.1,5,14.9,5,32.3c0,4-0.1,8.3-0.4,13.1c-0.2,3.2,2.2,5.9,5.4,6.1c0.1,0,0.2,0,0.3,0
			c3,0,5.6-2.4,5.7-5.4c0.3-5,0.4-9.6,0.4-13.8C192.4,82.3,190.4,71.6,187.5,64.1z"/>
	</g>
	<g>
		<path class="st0" d="M96.7,24.9l2.5-4.9c0.2-0.4,0-0.9-0.4-1.2l-2.3-1.2c-0.4-0.2-0.9-0.1-1.2,0.3l-2.8,4.7
			c-0.9-0.1-1.9,0.4-2.3,1.2L79.4,43.6c-0.2,0.4-0.1,0.9,0.3,1.1l5.3,2.9c0.4,0.2,0.9,0.1,1.1-0.3l10.8-19.7
			C97.4,26.7,97.2,25.6,96.7,24.9z M96.5,22.1C96.5,22.1,96.6,22.2,96.5,22.1l0.3,0.2v0.1l-1,1.9L93.6,23l1-1.9h0.1l0.2,0.1
			c0,0,0,0,0.1,0L96.5,22.1z M96,20.6c0.1-0.2,0.3-0.2,0.5-0.1s0.2,0.3,0.1,0.5s-0.3,0.2-0.5,0.1S95.9,20.8,96,20.6z M95.6,18.1
			c0.2-0.3,0.5-0.4,0.8-0.2l2.3,1.2c0.3,0.1,0.4,0.5,0.2,0.8l-2.4,4.8c-0.1-0.1-0.2-0.2-0.4-0.3l1-1.9c0.1-0.2,0-0.4-0.1-0.5
			c0,0,0,0,0-0.1l0.7-1.3c0.1-0.2,0-0.4-0.2-0.5L96,19.3c-0.2-0.1-0.4,0-0.5,0.2l-0.7,1.3c0,0,0,0,0,0.1c-0.2-0.1-0.4,0-0.5,0.2
			l-1,1.9c-0.1-0.1-0.3-0.1-0.5-0.2L95.6,18.1z"/>
		<path class="st1" d="M89.8,24.6c0,0,4,3,6.7,3.7L89,41.9c0,0-2.5-0.4-6.7-3.7L89.8,24.6z"/>
	</g>
</g>
</svg>
