<?xml version="1.0" encoding="utf-8"?>
<!-- Generator: Adobe Illustrator 20.1.0, SVG Export Plug-In . SVG Version: 6.00 Build 0)  -->
<!DOCTYPE svg PUBLIC "-//W3C//DTD SVG 1.1//EN" "http://www.w3.org/Graphics/SVG/1.1/DTD/svg11.dtd">
<svg version="1.1" id="Layer_1" xmlns="http://www.w3.org/2000/svg" xmlns:xlink="http://www.w3.org/1999/xlink" x="0px" y="0px"
	 viewBox="0 0 200 200" style="enable-background:new 0 0 200 200;" xml:space="preserve">
<style type="text/css">
	.st0{fill:none;stroke:#666666;stroke-width:.75;stroke-miterlimit:10;}
</style>
<g>
	<path class="st0" d="M135.7,62.3c0-8.7-6.9-16.6-17-20.2v-1.9c0-0.1-0.3-0.2-0.7-0.2H94.8c-0.4,0-0.7,0.1-0.7,0.2V42
		C84,45.5,77,52.9,77,61.5c0,0.2,0,0.3,0,0.5c0,0.1,0,0.2,0,0.3v120.9c0,0.3,0,0.7,0.1,1c-0.1,0.2-0.1,0.4-0.1,0.6
		c0,4.1,13.1,7.5,29.3,7.5c16.2,0,29.3-3.3,29.3-7.5c0-0.2-0.1-0.4-0.1-0.6c0.1-0.3,0.1-0.7,0.1-1V62.3z"/>
	<path class="st0" d="M116.9,37.3c0,1-0.8,1.7-1.7,1.7H97.5c-1,0-1.7-0.8-1.7-1.7V25.5c0-1,0.8-1.7,1.7-1.7h17.6
		c1,0,1.7,0.8,1.7,1.7V37.3z"/>
	<path class="st0" d="M116.9,20.9c0,1-0.8,1.7-1.7,1.7H97.5c-1,0-1.7-0.8-1.7-1.7v-2.6c0-1,0.8-1.7,1.7-1.7h17.6
		c1,0,1.7,0.8,1.7,1.7V20.9z"/>
	<path class="st0" d="M75.3,13.2l2.5,3.4c0,0,8.6-4.1,19.4-4l4,3.4H115V9.1c0,0,0-2.6-2.7-2.6H97.2C97.2,6.5,79.5,9,75.3,13.2z"/>
</g>
</svg>
