<?xml version="1.0" encoding="utf-8"?>
<!-- Generator: Adobe Illustrator 20.1.0, SVG Export Plug-In . SVG Version: 6.00 Build 0)  -->
<!DOCTYPE svg PUBLIC "-//W3C//DTD SVG 1.1//EN" "http://www.w3.org/Graphics/SVG/1.1/DTD/svg11.dtd">
<svg version="1.1" id="Layer_1" xmlns="http://www.w3.org/2000/svg" xmlns:xlink="http://www.w3.org/1999/xlink" x="0px" y="0px"
	 viewBox="0 0 200 200" style="enable-background:new 0 0 200 200;" xml:space="preserve">
<style type="text/css">
	.st0{fill-rule:evenodd;clip-rule:evenodd;fill:#FFFFFF;}
</style>
<path class="st0" d="M185.9,95.6c0.9,1.7,1.7,3.3,2.3,5h-4.8v8.3h7.4c0.5,1.7,0.9,3.8,1.1,5.1c1.7,0.5,3.5,1,5.2,1.5
	c-0.7,3.4-0.8,11.6-1.4,15l-5.2,2.7c0-0.2,0-0.4,0-0.5c0-11.8-9.6-21.4-21.4-21.4c-11.8,0-21.4,9.6-21.4,21.4c0,1.2,0.1,2.3,0.3,3.4
	h-30.8l-2.8,6.2H69H55.1c4-6.7,1.9-15.8,0.3-19h61.7l2.8-58.4c16.4,0.4,30.2,1.1,37.2,2.1l17.5,24.8L185.9,95.6L185.9,95.6z
	 M35.9,115.6c-9.4,0-17.1,7.6-17.1,17.1s7.6,17.1,17.1,17.1S53,142.1,53,132.7S45.3,115.6,35.9,115.6L35.9,115.6z M109.6,52.3H11.8
	c-2.4,0-4.4,2-4.4,4.4V75h62.9V64.3l32.3,21.3l-32.3,21.3V96.2H7.4v18c0,2.4,2,4.4,4.4,4.4h8.6c3.8-4.2,9.4-6.9,15.5-6.9
	c6.1,0,11.7,2.6,15.5,6.9h55.4c2.4,0,4.3-2,4.4-4.4l2.8-57.4C114.2,54.3,112.1,52.3,109.6,52.3L109.6,52.3z M17,123.2
	c-1.4,2.9-2.2,6.1-2.2,9.5c0,1.2,0.1,2.3,0.3,3.4h-2.8c-3.2-0.9-6.4-1.9-9.6-2.8c-0.1-3.3-0.3-6.7-0.4-10H17L17,123.2z M148.7,139.8
	h-28.8l-1.7,3.8h30.5V139.8L148.7,139.8z M169.1,115.6c-9.4,0-17.1,7.6-17.1,17.1c0,9.4,7.6,17.1,17.1,17.1
	c9.4,0,17.1-7.6,17.1-17.1C186.2,123.2,178.5,115.6,169.1,115.6L169.1,115.6z M127.4,95.8l-0.2,4.4c0,0,9.3-0.1,10.8-1.4
	c1.5-1.2,0.7-2.5,0.7-2.5L127.4,95.8L127.4,95.8z M166.6,95.8c-3-5.9-11.1-18.4-14.4-23.4c-6.7-0.8-15.2-0.8-24.2-1.1
	c-0.1,6.7-0.2,13.3-0.4,20L151,92l2.4,3.3L166.6,95.8z"/>
</svg>
