<?xml version="1.0" encoding="utf-8"?>
<!-- Generator: Adobe Illustrator 20.1.0, SVG Export Plug-In . SVG Version: 6.00 Build 0)  -->
<!DOCTYPE svg PUBLIC "-//W3C//DTD SVG 1.1//EN" "http://www.w3.org/Graphics/SVG/1.1/DTD/svg11.dtd">
<svg version="1.1" id="Layer_1" xmlns="http://www.w3.org/2000/svg" xmlns:xlink="http://www.w3.org/1999/xlink" x="0px" y="0px"
	 viewBox="0 0 200 200" style="enable-background:new 0 0 200 200;" xml:space="preserve">
<style type="text/css">
	.st0{fill:none;stroke:#666766;stroke-width:2;stroke-miterlimit:10;}
	.st1{fill:#666766;}
	.st2{fill:#FFFFFF;}
</style>
<g>
	<g>
		<path class="st0" d="M132,54.8c0-9.2-7.4-17.6-18.1-21.5v-2c0-0.1-0.3-0.2-0.8-0.2H88.6c-0.4,0-0.8,0.1-0.8,0.2v2
			C77.1,36.9,69.7,44.8,69.7,54c0,0.2,0,0.3,0,0.5c0,0.1,0,0.2,0,0.3v128.5c0,0.4,0,0.7,0.1,1.1c-0.1,0.2-0.1,0.4-0.1,0.6
			c0,4.4,14,7.9,31.2,7.9c17.2,0,31.2-3.5,31.2-7.9c0-0.2-0.1-0.4-0.1-0.6c0.1-0.3,0.1-0.7,0.1-1.1V54.8z"/>
		<path class="st0" d="M112,28.2c0,1-0.8,1.8-1.8,1.8H91.5c-1,0-1.8-0.8-1.8-1.8V15.7c0-1,0.8-1.8,1.8-1.8h18.7c1,0,1.8,0.8,1.8,1.8
			V28.2z"/>
		<path class="st0" d="M112,10.9c0,1-0.8,1.8-1.8,1.8H91.5c-1,0-1.8-0.8-1.8-1.8V8.1c0-1,0.8-1.8,1.8-1.8h18.7c1,0,1.8,0.8,1.8,1.8
			V10.9z"/>
	</g>
	<path class="st1" d="M69.7,62.3c0,0,35.8,2.8,62.3,0v90.9c0,0-30.5,7.7-62.3,0V62.3z"/>
	<g>
		<path class="st2" d="M85.2,82.3v-6l-4.5-8.1h2.1l2,3.9c0.5,1.1,1,1.9,1.4,2.9h0c0.4-0.9,0.9-1.8,1.4-2.9l2-3.9h2.1L87,76.3v6H85.2
			z"/>
		<path class="st2" d="M101.3,77.3c0,3.4-2.1,5.2-4.6,5.2c-2.6,0-4.4-2-4.4-5c0-3.1,1.9-5.2,4.6-5.2
			C99.6,72.3,101.3,74.4,101.3,77.3z M93.6,77.5c0,2.1,1.1,4,3.1,4c2,0,3.2-1.9,3.2-4.1c0-2-1-4-3.1-4
			C94.7,73.4,93.6,75.3,93.6,77.5z"/>
		<path class="st2" d="M104.2,72.5v5.8c0,2.2,1,3.1,2.3,3.1c1.5,0,2.4-1,2.4-3.1v-5.8h1.3v5.8c0,3-1.6,4.3-3.7,4.3
			c-2,0-3.5-1.2-3.5-4.2v-5.8H104.2z"/>
		<path class="st2" d="M112.4,72.6c0.6-0.1,1.6-0.2,2.4-0.2c1.4,0,2.2,0.2,2.9,0.8c0.5,0.4,0.8,1.1,0.8,1.9c0,1.3-0.8,2.2-1.9,2.5v0
			c0.8,0.3,1.2,1,1.4,2c0.3,1.4,0.6,2.3,0.8,2.7h-1.3c-0.2-0.3-0.4-1.1-0.7-2.4c-0.3-1.4-0.8-1.9-2-1.9h-1.2v4.3h-1.3V72.6z
			 M113.7,77.1h1.3c1.4,0,2.2-0.7,2.2-1.9c0-1.3-0.9-1.8-2.3-1.8c-0.6,0-1.1,0.1-1.3,0.1V77.1z"/>
	</g>
	<g>
		<path class="st2" d="M77.6,83.9c0.8-0.2,2-0.3,3.3-0.3c1.8,0,3,0.3,3.9,1c0.7,0.5,1.2,1.4,1.2,2.5c0,1.4-0.9,2.6-2.4,3.1v0
			c1.3,0.3,2.9,1.4,2.9,3.5c0,1.2-0.5,2.1-1.2,2.8c-1,0.9-2.6,1.3-4.9,1.3c-1.3,0-2.2-0.1-2.8-0.2V83.9z M79.4,89.7h1.7
			c1.9,0,3.1-1,3.1-2.4c0-1.7-1.3-2.3-3.1-2.3c-0.8,0-1.3,0.1-1.6,0.1V89.7z M79.4,96.4c0.4,0.1,0.9,0.1,1.5,0.1
			c1.9,0,3.6-0.7,3.6-2.7c0-1.9-1.7-2.7-3.6-2.7h-1.5V96.4z"/>
		<path class="st2" d="M88.5,88.1c0.6-0.1,1.6-0.2,2.4-0.2c1.4,0,2.2,0.2,2.9,0.8c0.5,0.4,0.8,1.1,0.8,1.9c0,1.3-0.8,2.2-1.9,2.5v0
			c0.8,0.3,1.2,1,1.4,2c0.3,1.4,0.6,2.3,0.8,2.7h-1.3c-0.2-0.3-0.4-1.1-0.7-2.4c-0.3-1.4-0.8-1.9-2-1.9h-1.2v4.3h-1.3V88.1z
			 M89.7,92.6H91c1.4,0,2.2-0.7,2.2-1.9c0-1.3-0.9-1.8-2.3-1.8c-0.6,0-1.1,0.1-1.3,0.1V92.6z"/>
		<path class="st2" d="M98,94.7l-1,3.1h-1.3l3.4-9.9h1.5l3.4,9.9h-1.4l-1.1-3.1H98z M101.2,93.7l-1-2.8c-0.2-0.6-0.4-1.2-0.5-1.8h0
			c-0.1,0.6-0.3,1.2-0.5,1.8l-1,2.9H101.2z"/>
		<path class="st2" d="M105.3,97.8v-9.9h1.4l3.2,5c0.7,1.2,1.3,2.2,1.8,3.2l0,0c-0.1-1.3-0.1-2.5-0.1-4.1v-4.1h1.2v9.9h-1.3l-3.1-5
			c-0.7-1.1-1.3-2.2-1.8-3.3l0,0c0.1,1.2,0.1,2.4,0.1,4.1v4.2H105.3z"/>
		<path class="st2" d="M115,88.1c0.8-0.1,1.7-0.2,2.7-0.2c1.8,0,3.1,0.4,4,1.2c0.9,0.8,1.4,1.9,1.4,3.5c0,1.6-0.5,2.9-1.4,3.8
			c-0.9,0.9-2.4,1.4-4.4,1.4c-0.9,0-1.7,0-2.3-0.1V88.1z M116.2,96.8c0.3,0.1,0.8,0.1,1.3,0.1c2.7,0,4.2-1.5,4.2-4.2
			c0-2.3-1.3-3.8-4-3.8c-0.7,0-1.2,0.1-1.5,0.1V96.8z"/>
	</g>
	<g>
		<path class="st2" d="M80.6,114.1V100h2l4.5,7.1c1,1.7,1.9,3.1,2.5,4.6l0,0c-0.2-1.9-0.2-3.6-0.2-5.8V100h1.7v14.1h-1.8l-4.5-7.1
			c-1-1.6-1.9-3.2-2.6-4.7l-0.1,0c0.1,1.8,0.1,3.5,0.1,5.8v6H80.6z"/>
		<path class="st2" d="M95.5,111l-1,3.1h-1.3l3.4-9.9H98l3.4,9.9H100L99,111H95.5z M98.7,110l-1-2.8c-0.2-0.6-0.4-1.2-0.5-1.8h0
			c-0.1,0.6-0.3,1.2-0.5,1.8l-1,2.9H98.7z"/>
		<path class="st2" d="M111.1,109.7c-0.1-1.4-0.2-3-0.1-4.3h0c-0.3,1.2-0.7,2.4-1.2,3.7l-1.7,4.8h-1l-1.6-4.7
			c-0.5-1.4-0.9-2.7-1.1-3.8h0c0,1.2-0.1,2.9-0.2,4.4l-0.3,4.2h-1.2l0.7-9.9h1.6l1.7,4.8c0.4,1.2,0.7,2.3,1,3.3h0
			c0.2-1,0.6-2.1,1-3.3l1.8-4.8h1.6l0.6,9.9h-1.2L111.1,109.7z"/>
		<path class="st2" d="M119.6,109.4h-3.8v3.6h4.3v1.1h-5.5v-9.9h5.3v1.1h-4.1v3.1h3.8V109.4z"/>
	</g>
	<g>
		<path class="st2" d="M79.7,128c0.6-0.1,1.3-0.2,2.3-0.2c1.2,0,2,0.3,2.6,0.8c0.5,0.4,0.8,1.1,0.8,1.9c0,0.8-0.2,1.5-0.7,2
			c-0.6,0.7-1.7,1-2.8,1c-0.4,0-0.7,0-1-0.1v3.7h-1.2V128z M80.9,132.5c0.3,0.1,0.6,0.1,1,0.1c1.4,0,2.3-0.7,2.3-2
			c0-1.2-0.9-1.8-2.2-1.8c-0.5,0-0.9,0-1.1,0.1V132.5z"/>
		<path class="st2" d="M86.7,130.8c0.4-0.1,1-0.1,1.6-0.1c0.9,0,1.5,0.2,1.9,0.5c0.3,0.3,0.5,0.7,0.5,1.2c0,0.9-0.5,1.4-1.2,1.7v0
			c0.5,0.2,0.8,0.6,1,1.3c0.2,0.9,0.4,1.5,0.5,1.8H90c-0.1-0.2-0.3-0.7-0.4-1.5c-0.2-0.9-0.5-1.2-1.3-1.3h-0.8v2.8h-0.8V130.8z
			 M87.5,133.7h0.9c0.9,0,1.5-0.5,1.5-1.2c0-0.8-0.6-1.2-1.5-1.2c-0.4,0-0.7,0-0.8,0.1V133.7z"/>
		<path class="st2" d="M97.4,133.9c0,2.2-1.4,3.4-3,3.4c-1.7,0-2.9-1.3-2.9-3.3c0-2.1,1.3-3.4,3-3.4C96.2,130.6,97.4,132,97.4,133.9
			z M92.4,134c0,1.4,0.7,2.6,2.1,2.6c1.3,0,2.1-1.2,2.1-2.7c0-1.3-0.7-2.6-2.1-2.6C93.1,131.3,92.4,132.6,92.4,134z"/>
		<path class="st2" d="M98.5,130.8c0.5-0.1,1.1-0.1,1.8-0.1c1.2,0,2.1,0.3,2.6,0.8c0.6,0.5,0.9,1.3,0.9,2.3c0,1.1-0.3,1.9-0.9,2.5
			c-0.6,0.6-1.6,0.9-2.9,0.9c-0.6,0-1.1,0-1.5-0.1V130.8z M99.3,136.5c0.2,0,0.5,0,0.8,0c1.8,0,2.8-1,2.8-2.7c0-1.5-0.9-2.5-2.6-2.5
			c-0.4,0-0.8,0-1,0.1V136.5z"/>
		<path class="st2" d="M105.7,130.7v3.8c0,1.5,0.6,2.1,1.5,2.1c1,0,1.6-0.6,1.6-2.1v-3.8h0.8v3.8c0,2-1,2.8-2.5,2.8
			c-1.3,0-2.3-0.8-2.3-2.8v-3.8H105.7z"/>
		<path class="st2" d="M115.6,137c-0.3,0.2-0.9,0.3-1.7,0.3c-1.8,0-3.2-1.2-3.2-3.3c0-2,1.4-3.4,3.4-3.4c0.8,0,1.3,0.2,1.5,0.3
			l-0.2,0.7c-0.3-0.2-0.8-0.3-1.3-0.3c-1.5,0-2.5,1-2.5,2.7c0,1.6,0.9,2.6,2.5,2.6c0.5,0,1-0.1,1.4-0.3L115.6,137z"/>
		<path class="st2" d="M118.2,131.4h-2v-0.7h4.8v0.7h-2v5.8h-0.8V131.4z"/>
	</g>
</g>
</svg>
