<?xml version="1.0" encoding="utf-8"?>
<!-- Generator: Adobe Illustrator 20.1.0, SVG Export Plug-In . SVG Version: 6.00 Build 0)  -->
<!DOCTYPE svg PUBLIC "-//W3C//DTD SVG 1.1//EN" "http://www.w3.org/Graphics/SVG/1.1/DTD/svg11.dtd">
<svg version="1.1" id="Layer_1" xmlns="http://www.w3.org/2000/svg" xmlns:xlink="http://www.w3.org/1999/xlink" x="0px" y="0px"
	 viewBox="0 0 50 50" style="enable-background:new 0 0 50 50;" xml:space="preserve">
<style type="text/css">
	.st0{fill:none;stroke:#666666;stroke-width:0.75;stroke-miterlimit:10;}
</style>
<path class="st0" d="M29.7,17.7v-2.8c0-0.4-0.3-0.7-0.7-0.7h-0.1v-2.5c0-0.3-0.2-0.5-0.4-0.6l-0.2-3.6c0-0.4-0.3-0.7-0.7-0.7H24
	c-0.3,0-0.5,0.2-0.6,0.4l-3.1,0.3c-0.2,0-0.4,0.1-0.5,0.3c-0.1,0.2-0.1,0.4,0,0.6L20,8.8c0.2,0.3,0.6,0.5,0.9,0.5h2.3L23.1,11
	c-0.2,0.1-0.4,0.4-0.4,0.6v2.5h-0.1c-0.4,0-0.7,0.3-0.7,0.7v2.8c-1.5,0.1-2.7,1.3-2.7,2.9v21.7c0,0.9,0.7,1.6,1.6,1.6h10.1
	c0.9,0,1.6-0.7,1.6-1.6V20.6C32.4,19,31.2,17.8,29.7,17.7z M22.5,14.9c0-0.1,0.1-0.1,0.1-0.1H23h5.7H29c0.1,0,0.1,0.1,0.1,0.1v2.8
	h-6.6V14.9z M29.6,42.9h-7.7c-1.3-0.1-1.8-1.3-1.8-1.3h11.6C30.9,43,29.6,42.9,29.6,42.9z M20,19.5c0.4-0.7,1.1-1.3,2-1.3h7.5
	c0.9,0,1.7,0.5,2,1.3H20z"/>
</svg>
