<?xml version="1.0" encoding="utf-8"?>
<!-- Generator: Adobe Illustrator 20.1.0, SVG Export Plug-In . SVG Version: 6.00 Build 0)  -->
<!DOCTYPE svg PUBLIC "-//W3C//DTD SVG 1.1//EN" "http://www.w3.org/Graphics/SVG/1.1/DTD/svg11.dtd">
<svg version="1.1" id="Layer_1" xmlns="http://www.w3.org/2000/svg" xmlns:xlink="http://www.w3.org/1999/xlink" x="0px" y="0px"
	 viewBox="0 0 50 50" style="enable-background:new 0 0 50 50;" xml:space="preserve">
<style type="text/css">
	.st0{fill:#666666;}
</style>
<path class="st0" d="M41.1,20.9c0.1-0.2,0.1-0.4,0.1-0.5v-2.2c0-1-0.9-1.9-1.9-1.9H10.7c-1.1,0-1.9,0.9-1.9,1.9v2.2
	c0,0.2,0,0.4,0.1,0.5c-1.7,0.1-3,1.5-3,3.2v0V37c0,1,0.8,1.8,1.8,1.8h34.6c1,0,1.8-0.8,1.8-1.8V24.2v0C44.1,22.4,42.8,21,41.1,20.9z
	 M40.9,37.7H9.1c-2.9-0.2-2.5-2.6-2.5-2.6l36.8,0.1C43.4,37.8,40.9,37.7,40.9,37.7z M6.6,24.2v-0.6c0-1.1,1.1-2,2.5-2h31.8
	c1.4,0,2.5,0.9,2.5,2v0.6H6.6z"/>
</svg>
