<?xml version="1.0" encoding="utf-8"?>
<!-- Generator: Adobe Illustrator 20.1.0, SVG Export Plug-In . SVG Version: 6.00 Build 0)  -->
<!DOCTYPE svg PUBLIC "-//W3C//DTD SVG 1.1//EN" "http://www.w3.org/Graphics/SVG/1.1/DTD/svg11.dtd">
<svg version="1.1" id="Layer_1" xmlns="http://www.w3.org/2000/svg" xmlns:xlink="http://www.w3.org/1999/xlink" x="0px" y="0px"
	 viewBox="0 0 200 200" style="enable-background:new 0 0 200 200;" xml:space="preserve">
<style type="text/css">
	.st0{fill:#FFFFFF;}
</style>
<g>
	<path class="st0" d="M179,99.2V85.4C179,41.6,143.4,6,99.6,6C55.9,6,20.3,41.6,20.3,85.4v13.8c-2.8,0.9-4.8,3.5-4.8,6.5v26
		c0,3.1,2.1,5.9,5.2,6.7l18.2,3.8V95.2L32.5,96V85.4c0-37,30.1-67.1,67.1-67.1c37,0,67.1,30.1,67.1,67.1V96l-6.3-0.8v47.1l4.5-0.9
		c-2,19.8-16.9,35.8-36.1,39.6c-1.4-3.6-4.9-6.2-9-6.2h-13c-5.3,0-9.6,4.3-9.6,9.6c0,5.3,4.3,9.6,9.6,9.6h13c2,0,3.8-0.6,5.3-1.6
		c27.6-2.5,49.5-25.2,50.7-53.2l2.8-0.6c3-0.8,5.2-3.5,5.2-6.7v-26C183.8,102.7,181.9,100.1,179,99.2z"/>
	<path class="st0" d="M53.1,87.8L53.1,87.8c-5.3,0-9.7,4.3-9.7,9.7v43.3c0,5.3,4.3,9.7,9.7,9.7l0,0c5.3,0,9.7-4.3,9.7-9.7V97.5
		C62.7,92.1,58.4,87.8,53.1,87.8z"/>
	<path class="st0" d="M146.2,150.4c5.3,0,9.7-4.3,9.7-9.7V97.5c0-5.3-4.3-9.7-9.7-9.7l0,0c-5.3,0-9.7,4.3-9.7,9.7v43.3
		C136.6,146.1,140.9,150.4,146.2,150.4L146.2,150.4z"/>
</g>
</svg>
