<?xml version="1.0" encoding="utf-8"?>
<!-- Generator: Adobe Illustrator 20.1.0, SVG Export Plug-In . SVG Version: 6.00 Build 0)  -->
<!DOCTYPE svg PUBLIC "-//W3C//DTD SVG 1.1//EN" "http://www.w3.org/Graphics/SVG/1.1/DTD/svg11.dtd">
<svg version="1.1" id="Layer_1" xmlns="http://www.w3.org/2000/svg" xmlns:xlink="http://www.w3.org/1999/xlink" x="0px" y="0px"
	 viewBox="0 0 200 200" style="enable-background:new 0 0 200 200;" xml:space="preserve">
<style type="text/css">
	.st0{fill:#FFFFFF;}
</style>
<g>
	<path class="st0" d="M103,59.3l2.6-6.2l3.8,1.3c1.1-1.5,2.3-2.7,3.8-3.8l-1.3-3.8l6.2-2.6l1.8,3.6c1.7-0.3,3.5-0.3,5.3,0l1.8-3.6
		l6.2,2.6l-1.3,3.8c1.5,1.1,2.7,2.3,3.8,3.8l3.8-1.3l2.6,6.2l-3.6,1.8c0.3,1.7,0.3,3.5,0,5.3l3.6,1.8l-2.6,6.2l-3.8-1.3
		c-1.1,1.5-2.3,2.7-3.8,3.8l1.3,3.8l-6.2,2.6l-1.8-3.6c-1.7,0.3-3.5,0.3-5.3,0l-1.8,3.6l-6.2-2.6l1.3-3.8c-1.5-1.1-2.7-2.3-3.8-3.8
		l-3.8,1.3l-2.6-6.2l3.6-1.8c-0.3-1.7-0.3-3.5,0-5.3L103,59.3z"/>
	<ellipse transform="matrix(0.9238 -0.3828 0.3828 0.9238 -15.0724 51.7883)" class="st0" cx="122.6" cy="63.8" rx="6.5" ry="6.5"/>
	<path class="st0" d="M81.3,83.8l1.8-4.3l3.3,1.4c0.7-0.9,1.5-1.7,2.4-2.4l-1.4-3.3l4.3-1.8l1.4,3.3c1.1-0.2,2.2-0.2,3.4,0l1.4-3.3
		l4.3,1.8l-1.4,3.3c0.9,0.7,1.7,1.5,2.4,2.4l3.3-1.4l1.8,4.3l-3.3,1.4c0.2,1.1,0.2,2.2,0,3.4l3.3,1.4l-1.8,4.3l-3.3-1.4
		c-0.7,0.9-1.5,1.7-2.4,2.4l1.4,3.3l-4.3,1.8l-1.4-3.3c-1.1,0.2-2.2,0.2-3.4,0l-1.4,3.3l-4.3-1.8l1.4-3.3c-0.9-0.7-1.7-1.5-2.4-2.4
		l-3.3,1.4l-1.8-4.3l3.3-1.4c-0.2-1.1-0.2-2.2,0-3.4L81.3,83.8z"/>
	<ellipse transform="matrix(0.3827 -0.9239 0.9239 0.3827 -21.7673 141.0824)" class="st0" cx="94.7" cy="86.8" rx="4.5" ry="4.5"/>
	<path class="st0" d="M76.4,56l1.9-4.2l3.3,1.4c0.7-0.9,1.5-1.7,2.4-2.3l-1.3-3.3l4.3-1.7l1.3,3.3c1.1-0.2,2.2-0.1,3.3,0.1L93,46
		l4.2,1.9l-1.4,3.3c0.9,0.7,1.7,1.5,2.3,2.4l3.3-1.3l1.7,4.3l-3.3,1.3c0.2,1.1,0.1,2.2-0.1,3.3l3.3,1.4l-1.9,4.2l-3.3-1.4
		c-0.7,0.9-1.5,1.7-2.4,2.3l1.3,3.3l-4.3,1.7l-1.3-3.3c-1.1,0.2-2.2,0.1-3.3-0.1l-1.4,3.3l-4.2-1.9l1.4-3.3
		c-0.9-0.7-1.7-1.5-2.3-2.4l-3.3,1.3l-1.7-4.3l3.3-1.3c-0.2-1.1-0.1-2.2,0.1-3.3L76.4,56z"/>
	<ellipse transform="matrix(0.4017 -0.9158 0.9158 0.4017 -0.6954 117.619)" class="st0" cx="89.7" cy="59.3" rx="4.5" ry="4.5"/>
</g>
<path class="st0" d="M81.6,119v8l-53.3-0.2c0,0-11.5-0.7-15.6-12.2s4-19.1,4-19.1s4.3-5.3,12.5-5.8c0,0,1.8-26.5,31.5-30.1
	c0,0,6.1-36.3,46.2-42.6c0,0,40.6-7.4,59.6,32.6c0,0,7.2,14,4.2,30.2c0,0,11.3,5.1,13,17.2c1.8,12.1-3.2,18-3.2,18
	s-4.6,9.2-18.6,11.8l-33.9,0.2v22.6h24.1l-41.2,35.1l-41.2-35.1h24.2v-21.6h8v29.7l-11-0.2l20,16.8l19.4-16.6h-10.4V86.4h8V119
	l31.9,0c0,0,14.8-0.9,16.3-16.2c0,0,2.1-12.9-14.5-18c0,0,6.4-21-7.7-40.8c0,0-12-19-38.2-19.5S76.2,44.3,76.2,44.3
	s-7.7,9.4-8.8,23.3c0,0-16.8-2.6-26.1,11.7c0,0-5.1,5.5-4.3,18.9l-6.2-0.5c0,0-9.6-0.1-11.1,9.6s8.7,11.5,8.7,11.5L81.6,119z"/>
</svg>
