<?xml version="1.0" encoding="utf-8"?>
<!-- Generator: Adobe Illustrator 20.1.0, SVG Export Plug-In . SVG Version: 6.00 Build 0)  -->
<!DOCTYPE svg PUBLIC "-//W3C//DTD SVG 1.1//EN" "http://www.w3.org/Graphics/SVG/1.1/DTD/svg11.dtd">
<svg version="1.1" id="Layer_1" xmlns="http://www.w3.org/2000/svg" xmlns:xlink="http://www.w3.org/1999/xlink" x="0px" y="0px"
	 viewBox="0 0 200 200" style="enable-background:new 0 0 200 200;" xml:space="preserve">
<style type="text/css">
	.st0{fill:#FFFFFF;}
</style>
<g>
	<g>
		<path id="cloud" class="st0" d="M165.5,126.5H23.9c-10.8,0-19.2-8.2-19.2-18.6c0-10.5,8.4-18.6,19.2-18.6c0,0,0.1,0,0.1,0
			c1.3-18.4,16.3-32.8,34.7-33.4C64.4,28,88.8,8,117.5,8c33.1,0,60,26.8,60,59.8c0,3.2-0.3,6.5-0.8,9.7c9.3,4.3,15.2,13.2,15.2,23.3
			C191.9,115.2,180.3,126.5,165.5,126.5z M23.9,94.1c-8.1,0-14.4,6.1-14.4,13.8c0,7.8,6.3,13.8,14.4,13.8h141.6
			c12.1,0,21.6-9.2,21.6-21c0-8.8-5.3-16.3-13.9-19.6l-1.9-0.7l0.4-2c0.7-3.5,1-7.1,1-10.7c0-30.3-24.8-54.9-55.2-54.9
			c-27.1,0-50,19.3-54.4,45.8l-0.3,2.1l-2.8-0.1c-17.2,0-31.2,13.9-31.2,31v2.8L26,94.2C25.2,94.1,24.5,94.1,23.9,94.1z"/>
	</g>
	<g>
		<polygon id="cloud" class="st0" points="112.7,194.5 72.6,160.3 95.9,160.3 95.9,138.6 100.7,138.6 100.7,165.1 85.6,165.1 112.7,188.2
			139.8,165.1 124.8,165.1 124.8,68.7 129.6,68.7 129.6,160.3 152.8,160.3 		"/>
	</g>
</g>
</svg>
