<?xml version="1.0" encoding="utf-8"?>
<!-- Generator: Adobe Illustrator 20.1.0, SVG Export Plug-In . SVG Version: 6.00 Build 0)  -->
<!DOCTYPE svg PUBLIC "-//W3C//DTD SVG 1.1//EN" "http://www.w3.org/Graphics/SVG/1.1/DTD/svg11.dtd">
<svg version="1.1" id="Layer_1" xmlns="http://www.w3.org/2000/svg" xmlns:xlink="http://www.w3.org/1999/xlink" x="0px" y="0px"
	 viewBox="0 0 50 50" style="enable-background:new 0 0 50 50;" xml:space="preserve">
<style type="text/css">
	.st0{fill:none;stroke:#FFFFFF;stroke-miterlimit:10;}
</style>
<g>
	<path class="st0" d="M32.4,16.9c0-2.1-1.6-3.9-4-4.8v-0.5c0,0-0.1,0-0.2,0h-5.5c-0.1,0-0.2,0-0.2,0V12c-2.4,0.8-4.1,2.6-4.1,4.6
		c0,0,0,0.1,0,0.1c0,0,0,0,0,0.1v28.7c0,0.1,0,0.2,0,0.2c0,0,0,0.1,0,0.1c0,1,3.1,1.8,7,1.8c3.8,0,7-0.8,7-1.8c0,0,0-0.1,0-0.1
		c0-0.1,0-0.2,0-0.2V16.9z"/>
	<path class="st0" d="M27.9,10.9c0,0.2-0.2,0.4-0.4,0.4h-4.2c-0.2,0-0.4-0.2-0.4-0.4V8.1c0-0.2,0.2-0.4,0.4-0.4h4.2
		c0.2,0,0.4,0.2,0.4,0.4V10.9z"/>
	<path class="st0" d="M27.9,7c0,0.2-0.2,0.4-0.4,0.4h-4.2c-0.2,0-0.4-0.2-0.4-0.4V6.4c0-0.2,0.2-0.4,0.4-0.4h4.2
		c0.2,0,0.4,0.2,0.4,0.4V7z"/>
	<path class="st0" d="M18,5.2L18.6,6c0,0,2-1,4.6-1l1,0.8h3.3V4.2c0,0,0-0.6-0.6-0.6h-3.6C23.2,3.6,19,4.2,18,5.2z"/>
</g>
</svg>
