<?xml version="1.0" encoding="utf-8"?>
<!-- Generator: Adobe Illustrator 20.1.0, SVG Export Plug-In . SVG Version: 6.00 Build 0)  -->
<!DOCTYPE svg PUBLIC "-//W3C//DTD SVG 1.1//EN" "http://www.w3.org/Graphics/SVG/1.1/DTD/svg11.dtd">
<svg version="1.1" id="Layer_1" xmlns="http://www.w3.org/2000/svg" xmlns:xlink="http://www.w3.org/1999/xlink" x="0px" y="0px"
	 viewBox="0 0 50 50" style="enable-background:new 0 0 50 50;" xml:space="preserve">
<style type="text/css">
	.st0{fill:none;stroke:#666666;stroke-miterlimit:10;}
</style>
<g>
	<path class="st0" d="M33.5,14.2c0-2.2-1.8-4.3-4.4-5.2V8.5c0,0-0.1,0-0.2,0H23c-0.1,0-0.2,0-0.2,0v0.5c-2.6,0.9-4.4,2.8-4.4,5
		c0,0,0,0.1,0,0.1c0,0,0,0.1,0,0.1v31.1c0,0.1,0,0.2,0,0.3c0,0.1,0,0.1,0,0.2c0,1.1,3.4,1.9,7.5,1.9c4.2,0,7.5-0.9,7.5-1.9
		c0-0.1,0-0.1,0-0.2c0-0.1,0-0.2,0-0.3V14.2z"/>
	<path class="st0" d="M28.7,7.7c0,0.2-0.2,0.4-0.4,0.4h-4.5c-0.2,0-0.4-0.2-0.4-0.4v-3c0-0.2,0.2-0.4,0.4-0.4h4.5
		c0.2,0,0.4,0.2,0.4,0.4V7.7z"/>
	<path class="st0" d="M28.7,3.5c0,0.2-0.2,0.4-0.4,0.4h-4.5c-0.2,0-0.4-0.2-0.4-0.4V2.8c0-0.2,0.2-0.4,0.4-0.4h4.5
		c0.2,0,0.4,0.2,0.4,0.4V3.5z"/>
</g>
</svg>
