<?xml version="1.0" encoding="utf-8"?>
<!-- Generator: Adobe Illustrator 20.1.0, SVG Export Plug-In . SVG Version: 6.00 Build 0)  -->
<!DOCTYPE svg PUBLIC "-//W3C//DTD SVG 1.1//EN" "http://www.w3.org/Graphics/SVG/1.1/DTD/svg11.dtd">
<svg version="1.1" id="Layer_1" xmlns="http://www.w3.org/2000/svg" xmlns:xlink="http://www.w3.org/1999/xlink" x="0px" y="0px"
	 viewBox="0 0 50 50" style="enable-background:new 0 0 50 50;" xml:space="preserve">
<style type="text/css">
	.st0{fill:none;stroke:#FFFFFF;stroke-miterlimit:10;}
</style>
<g>
	<g>
		<path class="st0" d="M42.2,14.1v10.8c2.1-1.3,2.8-3.2,2.9-5.4c0,0,0,0,0,0C45,17.3,44.3,15.3,42.2,14.1z"/>
		<path class="st0" d="M14.9,15.4c-0.1,0-0.3,0-0.4,0h0v8.1h0c0.1,0,0.3,0,0.4,0c5.4,0,8.8,1.1,12.5,1.9c1.1,0.3,2.1,0.6,2.5,2.5
			h-0.4c-0.4,0-0.7,0.3-0.7,0.7v1.9c0,0.4,0.3,0.7,0.7,0.7h0.6c0,0.3,0,0.5,0,0.8h-0.6c-0.3,0-0.5,0.2-0.5,0.5V34
			c0,0.3,0.2,0.5,0.5,0.5H30c-0.1,2.6-0.1,5.7,0.6,7.7c0.4,1.1,1.1,2,2.1,2c3.4,0,1.8-3,2.5-10.5c0.5-5.9,4.1-7.7,4.1-7.7l0.5-0.1
			l0,0l0,0c0.6-0.2,1.2-0.4,1.7-0.6V13.7c-1.5-0.7-3.5-1.1-6.3-1.1C26.9,12.6,23.6,15.4,14.9,15.4z M39.6,15.8
			c-1.2-0.4-2.7-0.5-4.4-0.5c-3.9,0-6.6,0.6-9.4,1.3c-2.7,0.6-5.5,1.3-9.3,1.5l0-0.8c3.8-0.1,6.6-0.8,9.3-1.5
			c2.9-0.7,5.6-1.3,9.4-1.3c1.7,0,3.2,0.2,4.4,0.5V15.8z"/>
		<path class="st0" d="M6.8,13.7C5.9,13.3,5,13.3,5,13.3v6.2v0v6.2c0,0,0.9,0,1.8-0.4c1-0.5,1.9-1,3-1.3c1.1-0.3,2.7-0.3,3.7-0.4
			v-8.2c-1.1,0-2.7-0.1-3.7-0.4C8.7,14.7,7.8,14.2,6.8,13.7z"/>
	</g>
</g>
</svg>
